<svg width="12" height="12" viewBox="0 0 12 12" fill="none" xmlns="http://www.w3.org/2000/svg">
<path d="M10.6875 6.00002C10.6875 6.1492 10.6282 6.29228 10.5227 6.39777C10.4172 6.50325 10.2741 6.56252 10.125 6.56252H3.23433L5.64933 8.97705C5.755 9.08272 5.81437 9.22604 5.81437 9.37549C5.81437 9.52493 5.755 9.66825 5.64933 9.77392C5.54366 9.8796 5.40034 9.93896 5.25089 9.93896C5.10145 9.93896 4.95813 9.8796 4.85246 9.77392L1.47746 6.39892C1.42502 6.34667 1.38341 6.28457 1.35502 6.2162C1.32663 6.14782 1.31201 6.07452 1.31201 6.00049C1.31201 5.92645 1.32663 5.85315 1.35502 5.78478C1.38341 5.7164 1.42502 5.65431 1.47746 5.60205L4.85246 2.22705C4.90478 2.17473 4.9669 2.13322 5.03526 2.1049C5.10362 2.07659 5.1769 2.06201 5.25089 2.06201C5.32489 2.06201 5.39816 2.07659 5.46653 2.1049C5.53489 2.13322 5.59701 2.17473 5.64933 2.22705C5.70165 2.27937 5.74316 2.34149 5.77148 2.40985C5.79979 2.47822 5.81437 2.55149 5.81437 2.62549C5.81437 2.69948 5.79979 2.77276 5.77148 2.84112C5.74316 2.90948 5.70165 2.9716 5.64933 3.02392L3.23433 5.43752H10.125C10.2741 5.43752 10.4172 5.49678 10.5227 5.60227C10.6282 5.70776 10.6875 5.85083 10.6875 6.00002Z" fill="white"/>
</svg>
