<svg width="50" height="8" viewBox="0 0 50 8" fill="none" xmlns="http://www.w3.org/2000/svg">
<g clip-path="url(#clip0_3_148)">
<path d="M49.6875 4.00002C49.6875 4.1492 49.6282 4.29228 49.5227 4.39777C49.4172 4.50325 49.2741 4.56252 49.125 4.56252H2.23433L4.64933 6.97705C4.755 7.08272 4.81437 7.22604 4.81437 7.37549C4.81437 7.52493 4.755 7.66825 4.64933 7.77392C4.54366 7.8796 4.40034 7.93896 4.25089 7.93896C4.10145 7.93896 3.95813 7.8796 3.85246 7.77392L0.477455 4.39892C0.425015 4.34667 0.383407 4.28457 0.355016 4.2162C0.326626 4.14782 0.312012 4.07452 0.312012 4.00049C0.312012 3.92645 0.326626 3.85315 0.355016 3.78478C0.383407 3.7164 0.425015 3.65431 0.477455 3.60205L3.85246 0.22705C3.90478 0.174726 3.9669 0.133221 4.03526 0.104904C4.10362 0.0765863 4.1769 0.0620117 4.25089 0.0620117C4.32489 0.0620117 4.39816 0.0765863 4.46653 0.104904C4.53489 0.133221 4.59701 0.174726 4.64933 0.22705C4.70165 0.279373 4.74316 0.34149 4.77148 0.409855C4.79979 0.478219 4.81437 0.551491 4.81437 0.625487C4.81437 0.699484 4.79979 0.772756 4.77148 0.84112C4.74316 0.909484 4.70165 0.971601 4.64933 1.02392L2.23433 3.43752H49.125C49.2741 3.43752 49.4172 3.49678 49.5227 3.60227C49.6282 3.70776 49.6875 3.85083 49.6875 4.00002Z" fill="white"/>
</g>
<defs>
<clipPath id="clip0_3_148">
<rect width="50" height="8" fill="white"/>
</clipPath>
</defs>
</svg>
