<svg width="50" height="8" viewBox="0 0 50 8" fill="none" xmlns="http://www.w3.org/2000/svg">
<g clip-path="url(#clip0_3_150)">
<path d="M0.312546 4.00002C0.312546 4.1492 0.371811 4.29228 0.477299 4.39777C0.582787 4.50325 0.725861 4.56252 0.875046 4.56252H47.7657L45.3507 6.97705C45.245 7.08272 45.1856 7.22604 45.1856 7.37549C45.1856 7.52493 45.245 7.66825 45.3507 7.77392C45.4563 7.8796 45.5997 7.93896 45.7491 7.93896C45.8986 7.93896 46.0419 7.8796 46.1475 7.77392L49.5225 4.39892C49.575 4.34667 49.6166 4.28457 49.645 4.2162C49.6734 4.14782 49.688 4.07452 49.688 4.00049C49.688 3.92645 49.6734 3.85315 49.645 3.78478C49.6166 3.7164 49.575 3.65431 49.5225 3.60205L46.1475 0.22705C46.0952 0.174726 46.0331 0.133221 45.9647 0.104904C45.8964 0.0765863 45.8231 0.0620117 45.7491 0.0620117C45.6751 0.0620117 45.6018 0.0765863 45.5335 0.104904C45.4651 0.133221 45.403 0.174726 45.3507 0.22705C45.2983 0.279373 45.2568 0.34149 45.2285 0.409855C45.2002 0.478219 45.1856 0.551491 45.1856 0.625487C45.1856 0.699484 45.2002 0.772756 45.2285 0.84112C45.2568 0.909484 45.2983 0.971601 45.3507 1.02392L47.7657 3.43752H0.875046C0.725861 3.43752 0.582787 3.49678 0.477299 3.60227C0.371811 3.70776 0.312546 3.85083 0.312546 4.00002Z" fill="white"/>
</g>
<defs>
<clipPath id="clip0_3_150">
<rect width="50" height="8" fill="white" transform="matrix(-1 0 0 1 50 0)"/>
</clipPath>
</defs>
</svg>
