<svg width="34" height="34" viewBox="0 0 34 34" fill="none" xmlns="http://www.w3.org/2000/svg">
<g filter="url(#filter0_d_3_39)">
<path d="M17 8.875C15.393 8.875 13.8221 9.35152 12.486 10.2443C11.1498 11.1371 10.1084 12.406 9.49348 13.8907C8.87852 15.3753 8.71762 17.009 9.03112 18.5851C9.34463 20.1612 10.1185 21.6089 11.2548 22.7452C12.3911 23.8815 13.8388 24.6554 15.4149 24.9689C16.991 25.2824 18.6247 25.1215 20.1093 24.5065C21.594 23.8916 22.8629 22.8502 23.7557 21.514C24.6485 20.1779 25.125 18.607 25.125 17C25.1227 14.8458 24.266 12.7805 22.7427 11.2573C21.2195 9.73403 19.1542 8.87727 17 8.875ZM19.3172 17.4422L16.1922 20.5672C16.1341 20.6253 16.0652 20.6713 15.9893 20.7027C15.9134 20.7342 15.8321 20.7503 15.75 20.7503C15.6679 20.7503 15.5866 20.7342 15.5107 20.7027C15.4348 20.6713 15.3659 20.6253 15.3078 20.5672C15.2497 20.5091 15.2037 20.4402 15.1723 20.3643C15.1408 20.2884 15.1247 20.2071 15.1247 20.125C15.1247 20.0429 15.1408 19.9616 15.1723 19.8857C15.2037 19.8098 15.2497 19.7409 15.3078 19.6828L17.9914 17L15.3078 14.3172C15.1905 14.1999 15.1247 14.0409 15.1247 13.875C15.1247 13.7091 15.1905 13.5501 15.3078 13.4328C15.4251 13.3155 15.5842 13.2497 15.75 13.2497C15.9159 13.2497 16.0749 13.3155 16.1922 13.4328L19.3172 16.5578C19.3753 16.6159 19.4214 16.6848 19.4529 16.7607C19.4843 16.8365 19.5005 16.9179 19.5005 17C19.5005 17.0821 19.4843 17.1635 19.4529 17.2393C19.4214 17.3152 19.3753 17.3841 19.3172 17.4422Z" fill="white"/>
</g>
<defs>
<filter id="filter0_d_3_39" x="0.125" y="0.125" width="33.75" height="33.75" filterUnits="userSpaceOnUse" color-interpolation-filters="sRGB">
<feFlood flood-opacity="0" result="BackgroundImageFix"/>
<feColorMatrix in="SourceAlpha" type="matrix" values="0 0 0 0 0 0 0 0 0 0 0 0 0 0 0 0 0 0 127 0" result="hardAlpha"/>
<feOffset/>
<feGaussianBlur stdDeviation="4.375"/>
<feComposite in2="hardAlpha" operator="out"/>
<feColorMatrix type="matrix" values="0 0 0 0 0 0 0 0 0 0 0 0 0 0 0 0 0 0 0.1 0"/>
<feBlend mode="normal" in2="BackgroundImageFix" result="effect1_dropShadow_3_39"/>
<feBlend mode="normal" in="SourceGraphic" in2="effect1_dropShadow_3_39" result="shape"/>
</filter>
</defs>
</svg>
