<svg width="34" height="34" viewBox="0 0 34 34" fill="none" xmlns="http://www.w3.org/2000/svg">
<g filter="url(#filter0_d_3_38)">
<path d="M17 8.875C15.393 8.875 13.8221 9.35152 12.486 10.2443C11.1498 11.1371 10.1084 12.406 9.49348 13.8907C8.87852 15.3753 8.71762 17.009 9.03112 18.5851C9.34463 20.1612 10.1185 21.6089 11.2548 22.7452C12.3911 23.8815 13.8388 24.6554 15.4149 24.9689C16.991 25.2824 18.6247 25.1215 20.1093 24.5065C21.594 23.8916 22.8629 22.8502 23.7557 21.514C24.6485 20.1779 25.125 18.607 25.125 17C25.1227 14.8458 24.266 12.7805 22.7427 11.2573C21.2195 9.73403 19.1542 8.87727 17 8.875ZM18.6922 19.6828C18.7503 19.7409 18.7963 19.8098 18.8277 19.8857C18.8592 19.9616 18.8754 20.0429 18.8754 20.125C18.8754 20.2071 18.8592 20.2884 18.8277 20.3643C18.7963 20.4402 18.7503 20.5091 18.6922 20.5672C18.6341 20.6253 18.5652 20.6713 18.4893 20.7027C18.4134 20.7342 18.3321 20.7503 18.25 20.7503C18.1679 20.7503 18.0866 20.7342 18.0107 20.7027C17.9348 20.6713 17.8659 20.6253 17.8078 20.5672L14.6828 17.4422C14.6247 17.3841 14.5786 17.3152 14.5472 17.2393C14.5157 17.1635 14.4995 17.0821 14.4995 17C14.4995 16.9179 14.5157 16.8365 14.5472 16.7607C14.5786 16.6848 14.6247 16.6159 14.6828 16.5578L17.8078 13.4328C17.8659 13.3747 17.9348 13.3287 18.0107 13.2973C18.0866 13.2658 18.1679 13.2497 18.25 13.2497C18.3321 13.2497 18.4134 13.2658 18.4893 13.2973C18.5652 13.3287 18.6341 13.3747 18.6922 13.4328C18.7503 13.4909 18.7963 13.5598 18.8277 13.6357C18.8592 13.7116 18.8754 13.7929 18.8754 13.875C18.8754 13.9571 18.8592 14.0384 18.8277 14.1143C18.7963 14.1902 18.7503 14.2591 18.6922 14.3172L16.0086 17L18.6922 19.6828Z" fill="white"/>
</g>
<defs>
<filter id="filter0_d_3_38" x="0.125" y="0.125" width="33.75" height="33.75" filterUnits="userSpaceOnUse" color-interpolation-filters="sRGB">
<feFlood flood-opacity="0" result="BackgroundImageFix"/>
<feColorMatrix in="SourceAlpha" type="matrix" values="0 0 0 0 0 0 0 0 0 0 0 0 0 0 0 0 0 0 127 0" result="hardAlpha"/>
<feOffset/>
<feGaussianBlur stdDeviation="4.375"/>
<feComposite in2="hardAlpha" operator="out"/>
<feColorMatrix type="matrix" values="0 0 0 0 0 0 0 0 0 0 0 0 0 0 0 0 0 0 0.1 0"/>
<feBlend mode="normal" in2="BackgroundImageFix" result="effect1_dropShadow_3_38"/>
<feBlend mode="normal" in="SourceGraphic" in2="effect1_dropShadow_3_38" result="shape"/>
</filter>
</defs>
</svg>
